# File created by Blade
# Date/Time:  Wed Jan 21 14:55:15 2015
# Frame Rate: 120.000 fps
#------------------------------------------------------
:FULLY-SPECIFIED
:DEGREES
816
root 20.203832 22.949842 -18.350130 -135.359934 76.914841 -155.275478
Spine -0.640335 -3.567837 8.142617
Head -4.163061 3.461290 -3.316523
LeftShoulder -16.841563 -34.530590 20.208053
LeftArm -20.191013 -2.543934 -13.263199
LeftForeArm -3.569490 -0.000000 -0.934323
LeftHand -10.369036 -0.000000 3.425713
LeftHandThumb1 -26.253704 0.000000 33.147579
RightShoulder -10.143500 -1.760846 -12.749434
RightArm 2.557713 44.883396 24.108150
RightForeArm -32.617065 0.000000 6.605953
RightHand -14.470376 -0.000000 -3.590961
RightHandThumb1 -24.326973 -0.000000 -32.862282
LeftUpLeg 10.895033 9.794471 11.555099
LeftLeg 50.448819 -0.000000 -0.000000
LeftFoot -9.338187 21.780887 -10.917256
LeftToeBase -59.257370 -0.000000 0.000000
RightUpLeg -88.839043 9.458057 11.574583
RightLeg 90.878946 -0.000000 -0.000000
RightFoot -42.249247 -25.423809 16.285024
RightToeBase 24.396115 -0.000000 -0.000000
817
root 20.313397 23.256772 -18.323642 -136.492783 76.524126 -156.931427
Spine -1.225281 -3.578312 8.000456
Head -4.232940 3.470166 -3.180041
LeftShoulder -16.800508 -34.544707 20.307389
LeftArm -20.461166 -2.477307 -13.290267
LeftForeArm -3.565662 -0.000000 -0.820300
LeftHand -10.364527 0.000000 3.539438
LeftHandThumb1 -26.253704 0.000000 33.147579
RightShoulder -10.215783 -1.854447 -12.635518
RightArm 2.372805 44.943623 24.102211
RightForeArm -32.635802 -0.000000 6.592847
RightHand -14.451038 -0.000000 -3.778552
RightHandThumb1 -24.326973 -0.000000 -32.862282
LeftUpLeg 10.765795 9.576294 11.635338
LeftLeg 48.706272 -0.000000 -0.000000
LeftFoot -7.774175 21.774940 -10.489790
LeftToeBase -59.671189 -0.000000 0.000000
RightUpLeg -88.336761 9.097043 11.442984
RightLeg 89.851553 -0.000000 -0.000000
RightFoot -42.358697 -25.319632 16.457953
RightToeBase 24.689052 -0.000000 -0.000000
818
root 20.428665 23.570468 -18.299495 -137.652143 76.098717 -158.620772
Spine -1.839060 -3.605265 7.866466
Head -4.267934 3.528081 -3.080216
LeftShoulder -16.801608 -34.416451 20.351061
LeftArm -20.567070 -2.424255 -13.386132
LeftForeArm -3.652350 -0.000000 -0.795546
LeftHand -10.329801 0.000000 3.583833
LeftHandThumb1 -26.253704 0.000000 33.147579
RightShoulder -10.264245 -1.877204 -12.501532
RightArm 2.058219 44.903167 23.946492
RightForeArm -32.566782 0.000000 6.648960
RightHand -14.492631 -0.000000 -3.900127
RightHandThumb1 -24.326973 -0.000000 -32.862282
LeftUpLeg 10.646203 9.275557 11.685367
LeftLeg 46.905684 -0.000000 -0.000000
LeftFoot -6.052882 21.753724 -9.980755
LeftToeBase -60.223741 -0.000000 0.000000
RightUpLeg -87.814374 8.681524 11.326856
RightLeg 88.793640 -0.000000 -0.000000
RightFoot -42.469813 -25.145654 16.850121
RightToeBase 24.445925 -0.000000 -0.000000
819
root 20.549070 23.888227 -18.279538 -138.825736 75.670733 -160.313357
Spine -2.457304 -3.611690 7.695099
Head -4.271361 3.538710 -2.945160
LeftShoulder -16.779630 -34.335833 20.406917
LeftArm -20.696564 -2.426251 -13.456423
LeftForeArm -3.642145 -0.000000 -0.789637
LeftHand -10.386705 0.000000 3.730467
LeftHandThumb1 -26.253704 0.000000 33.147579
RightShoulder -10.334887 -1.976401 -12.327369
RightArm 1.839889 44.948492 23.805012
RightForeArm -32.535087 -0.000000 6.597230
RightHand -14.441493 -0.000000 -4.035544
RightHandThumb1 -24.326973 -0.000000 -32.862282
LeftUpLeg 10.532055 9.021261 11.740383
LeftLeg 45.077123 -0.000000 -0.000000
LeftFoot -4.149167 21.817775 -9.503172
LeftToeBase -60.954419 -0.000000 0.000000
RightUpLeg -87.259958 8.217833 11.220670
RightLeg 87.721139 -0.000000 -0.000000
RightFoot -42.584813 -24.916337 17.162458
RightToeBase 24.314144 -0.000000 -0.000000
820
root 20.668584 24.209976 -18.263298 -139.995196 75.228227 -162.028980
Spine -3.123536 -3.652992 7.528859
Head -4.248075 3.568553 -2.876200
LeftShoulder -16.753092 -34.298610 20.472556
LeftArm -20.924145 -2.397988 -13.505421
LeftForeArm -3.572038 -0.000000 -0.706619
LeftHand -10.415434 -0.000000 3.697080
LeftHandThumb1 -26.253704 0.000000 33.147579
RightShoulder -10.335713 -2.019753 -12.210684
RightArm 1.475349 44.818061 23.605807
RightForeArm -32.370455 -0.000000 6.692634
RightHand -14.634120 -0.000000 -4.061699
RightHandThumb1 -24.326973 -0.000000 -32.862282
LeftUpLeg 10.385450 8.800115 11.789796
LeftLeg 43.239088 -0.000000 -0.000000
LeftFoot -2.050967 21.739333 -8.635610
LeftToeBase -61.636717 -0.000000 0.000000
RightUpLeg -86.719753 7.726776 11.091083
RightLeg 86.608027 -0.000000 -0.000000
RightFoot -42.728699 -24.928739 17.276779
RightToeBase 24.607620 -0.000000 -0.000000
821
root 20.791641 24.534999 -18.248090 -141.254360 74.789655 -163.854196
Spine -3.824100 -3.680410 7.284024
Head -4.224914 3.607348 -2.772631
LeftShoulder -16.778752 -34.154062 20.537328
LeftArm -20.966246 -2.522310 -13.566684
LeftForeArm -3.491204 -0.000000 -0.752501
LeftHand -10.322723 0.000000 3.546498
LeftHandThumb1 -26.253704 0.000000 33.147579
RightShoulder -10.321553 -1.974513 -12.128949
RightArm 1.036709 44.753743 23.398718
RightForeArm -32.342804 -0.000000 6.692831
RightHand -14.632050 0.000000 -4.233545
RightHandThumb1 -24.326973 -0.000000 -32.862282
LeftUpLeg 10.208063 8.501232 11.740283
LeftLeg 41.397744 -0.000000 -0.000000
LeftFoot 0.208463 21.772287 -7.856348
LeftToeBase -61.661351 -0.000000 0.000000
RightUpLeg -86.198608 7.202919 10.930363
RightLeg 85.494058 -0.000000 -0.000000
RightFoot -42.822323 -24.824349 17.449640
RightToeBase 24.818701 -0.000000 -0.000000
822
root 20.916796 24.862323 -18.233764 -142.597631 74.308063 -165.755484
Spine -4.540905 -3.700321 6.995156
Head -4.114722 3.693724 -2.634925
LeftShoulder -16.642521 -34.212788 20.557731
LeftArm -21.167258 -2.301202 -13.592879
LeftForeArm -3.552142 -0.000000 -0.729978
LeftHand -10.245081 -0.000000 3.407867
LeftHandThumb1 -26.253704 0.000000 33.147579
RightShoulder -10.405359 -2.116748 -11.967136
RightArm 0.795474 44.795757 23.282798
RightForeArm -32.336682 -0.000000 6.726002
RightHand -14.677414 -0.000000 -4.355964
RightHandThumb1 -24.326973 -0.000000 -32.862282
LeftUpLeg 9.983062 8.191847 11.697843
LeftLeg 39.627632 -0.000000 -0.000000
LeftFoot 2.695315 21.793397 -6.803827
LeftToeBase -61.888639 -0.000000 0.000000
RightUpLeg -85.669191 6.602389 10.769509
RightLeg 84.378597 -0.000000 -0.000000
RightFoot -42.815601 -24.631126 17.530122
RightToeBase 24.915627 -0.000000 -0.000000
823
root 21.042388 25.190967 -18.223796 -143.934306 73.823310 -167.646072
Spine -5.242503 -3.725672 6.684635
Head -4.055349 3.715245 -2.505065
LeftShoulder -16.675309 -34.087860 20.572740
LeftArm -21.092330 -2.319871 -13.654534
LeftForeArm -3.587539 -0.000000 -0.826470
LeftHand -10.080296 -0.000000 3.302708
LeftHandThumb1 -26.253704 0.000000 33.147579
RightShoulder -10.454563 -2.092538 -11.870215
RightArm 0.378199 44.777382 23.120410
RightForeArm -32.374930 0.000000 6.910770
RightHand -14.835231 -0.000000 -4.456540
RightHandThumb1 -24.326973 -0.000000 -32.862282
LeftUpLeg 9.735210 7.898479 11.610691
LeftLeg 37.884772 -0.000000 -0.000000
LeftFoot 5.361879 21.921506 -5.647684
LeftToeBase -61.625462 -0.000000 0.000000
RightUpLeg -85.123208 5.998678 10.573010
RightLeg 83.230855 -0.000000 -0.000000
RightFoot -42.767524 -24.521367 17.517376
RightToeBase 24.947893 -0.000000 -0.000000
824
root 21.166735 25.520941 -18.213048 -145.329586 73.329423 -169.612234
Spine -5.998157 -3.753609 6.294879
Head -3.886540 3.822285 -2.337602
LeftShoulder -16.573354 -33.880574 20.511839
LeftArm -21.082136 -2.398176 -13.678834
LeftForeArm -3.728534 -0.000000 -0.784533
LeftHand -10.252655 0.000000 3.348941
LeftHandThumb1 -26.253704 0.000000 33.147579
RightShoulder -10.447625 -2.172440 -11.789848
RightArm -0.103977 44.803266 22.980611
RightForeArm -32.412352 -0.000000 7.132129
RightHand -14.957499 -0.000000 -4.497404
RightHandThumb1 -24.326973 -0.000000 -32.862282
LeftUpLeg 9.372184 7.548638 11.444065
LeftLeg 36.328377 -0.000000 -0.000000
LeftFoot 7.989029 22.105391 -4.363937
LeftToeBase -60.047618 -0.000000 0.000000
RightUpLeg -84.597694 5.384125 10.331494
RightLeg 82.058619 -0.000000 -0.000000
RightFoot -42.698573 -24.476530 17.531099
RightToeBase 24.975892 -0.000000 -0.000000
825
root 21.288952 25.852200 -18.203626 -146.769279 72.766378 -171.604746
Spine -6.705432 -3.799821 5.896417
Head -3.775140 3.823685 -2.193797
LeftShoulder -16.567912 -33.668560 20.432161
LeftArm -20.874048 -2.436624 -13.733900
LeftForeArm -3.825944 -0.000000 -0.812781
LeftHand -10.371083 -0.000000 3.438468
LeftHandThumb1 -26.253704 0.000000 33.147579
RightShoulder -10.475260 -2.241458 -11.740814
RightArm -0.599719 44.793657 22.879772
RightForeArm -32.444670 0.000000 7.362532
RightHand -15.037985 -0.000000 -4.684721
RightHandThumb1 -24.326973 -0.000000 -32.862282
LeftUpLeg 8.904581 7.195636 11.281156
LeftLeg 35.007836 -0.000000 -0.000000
LeftFoot 10.683569 22.278110 -2.616395
LeftToeBase -57.514011 -0.000000 0.000000
RightUpLeg -84.070057 4.686953 10.102063
RightLeg 80.867440 -0.000000 -0.000000
RightFoot -42.663211 -24.446424 17.604522
RightToeBase 25.186880 -0.000000 -0.000000
826
root 21.409196 26.182760 -18.191682 -148.070472 72.107852 -173.426785
Spine -7.368490 -3.872013 5.566487
Head -3.682838 3.809644 -2.066864
LeftShoulder -16.552730 -33.527717 20.374155
LeftArm -20.737791 -2.518186 -13.792257
LeftForeArm -3.922325 -0.000000 -0.763664
LeftHand -10.504007 -0.000000 3.286558
LeftHandThumb1 -26.253704 0.000000 33.147579
RightShoulder -10.541752 -2.426965 -11.678689
RightArm -0.938845 44.939895 22.854670
RightForeArm -32.539655 -0.000000 7.526193
RightHand -15.091970 -0.000000 -4.942597
RightHandThumb1 -24.326973 -0.000000 -32.862282
LeftUpLeg 8.324827 6.736736 11.156712
LeftLeg 34.024366 -0.000000 -0.000000
LeftFoot 12.916472 22.292500 -0.792820
LeftToeBase -51.211767 -0.000000 0.000000
RightUpLeg -83.510373 3.925678 9.942941
RightLeg 79.658695 -0.000000 -0.000000
RightFoot -42.601073 -24.404896 17.757101
RightToeBase 25.308432 -0.000000 -0.000000
827
root 21.527960 26.509279 -18.181802 -149.363676 71.434447 -175.183174
Spine -7.973006 -3.952828 5.216353
Head -3.557165 3.838313 -1.965734
LeftShoulder -16.509183 -33.411379 20.313697
LeftArm -20.625564 -2.462392 -13.889330
LeftForeArm -4.056446 0.000000 -0.696516
LeftHand -10.609484 -0.000000 3.234693
LeftHandThumb1 -26.253704 0.000000 33.147579
RightShoulder -10.554817 -2.436721 -11.698137
RightArm -1.445600 44.807445 22.765387
RightForeArm -32.483186 -0.000000 7.740483
RightHand -15.226313 -0.000000 -5.170713
RightHandThumb1 -24.326973 -0.000000 -32.862282
LeftUpLeg 7.675301 6.474897 11.071167
LeftLeg 33.258319 -0.000000 -0.000000
LeftFoot 15.120049 22.410598 1.032987
LeftToeBase -43.883157 -0.000000 0.000000
RightUpLeg -82.906662 3.126155 9.797812
RightLeg 78.454416 -0.000000 -0.000000
RightFoot -42.530801 -24.406902 17.889247
RightToeBase 25.556864 -0.000000 -0.000000
